<svg xmlns="http://www.w3.org/2000/svg" viewBox="0 0 100 100" width="32" height="32">
  <defs>
    <linearGradient id="cool-gradient" x1="0" y1="0" x2="1" y2="1">
      <stop offset="0%" stop-color="#4a00e0" />
      <stop offset="100%" stop-color="#8e2de2" />
    </linearGradient>
  </defs>
  <path
    fill="url(#cool-gradient)"
    d="M 50,5 A 45,45 0 1 1 5,50 A 45,45 0 0 1 50,5 Z
       M 50,15 A 35,35 0 1 0 85,50 A 35,35 0 0 0 50,15 Z
       M 50,25
         C 35,25 25,35 25,50
         S 35,75 50,75
         C 65,75 75,65 75,50
         S 65,25 50,25 Z
       M 50,30
         A 20,20 0 1 1 30,50
         A 20,20 0 0 1 50,30 Z
    "
  />
  <text x="50" y="70" font-size="50" font-family="Arial, sans-serif" fill="white" text-anchor="middle" dy=".1em">S</text>
</svg>